<svg width="137" height="106" viewBox="0 0 137 106" fill="none" xmlns="http://www.w3.org/2000/svg">
<path d="M96.6074 83.6056C96.9945 83.6297 97.4118 83.6781 97.8291 83.6781C103.738 83.6841 109.652 83.6479 115.561 83.7083C116.855 83.7204 117.242 83.2793 117.176 82.0405C117.091 80.4271 117.158 78.8076 117.158 76.8135C123.864 81.7444 130.348 86.5061 137 91.4007C130.396 96.2591 123.913 101.027 117.158 106C117.158 104.121 117.158 102.568 117.158 101.015C117.158 99.0085 117.158 99.0025 115.204 99.0025C77.4241 99.0025 39.6381 99.0025 1.85816 99.0025C0.0317548 99.0025 0.0317545 99.0025 0.0317545 97.1655C0.0317545 93.1833 0.086186 89.2011 0.0015182 85.225C-0.0287203 83.9319 0.388568 83.6418 1.62835 83.6479C21.9426 83.6841 42.2568 83.7143 62.571 83.6599C72.9851 83.6297 81.2039 79.3213 86.6408 70.3538C96.4502 54.1592 86.2235 32.9492 67.4273 30.2178C52.9128 28.1089 39.4204 37.8438 36.959 52.5941C36.6989 54.129 36.6808 55.7062 36.5296 57.5553C38.9064 57.235 41.0593 56.9389 43.4966 56.6126C39.6805 63.9847 35.9974 71.1031 32.2599 78.3182C26.5328 72.4204 20.8903 66.6133 15.3748 60.9332C16.7597 60.7035 18.5982 60.4376 20.4185 60.0569C20.7633 59.9844 21.2713 59.4285 21.2592 59.1082C21.1564 55.2469 21.4225 51.4279 22.1784 47.6391C22.2026 47.5243 22.1482 47.3913 22.1119 47.1678C18.4228 46.5393 14.9998 45.2099 11.8973 43.0708C4.31353 37.8257 0.346236 28.0666 2.20893 19.1717C4.23491 9.47912 11.5526 2.23386 21.0112 0.445201C27.1436 -0.708965 32.8284 0.390819 38.1081 3.62973C39.0394 4.2038 39.6079 4.28839 40.2187 3.29134C40.5755 2.70519 41.1138 2.23386 41.7306 1.52081C42.4987 4.6147 43.2184 7.50918 43.932 10.4037C44.1739 11.3765 44.3614 12.3676 44.6456 13.3283C44.9541 14.3677 44.6396 14.833 43.5389 14.7605C40.3578 14.5429 37.1707 14.3496 33.9896 14.1381C33.2034 14.0837 32.4232 13.9991 31.4133 13.9024C32.1995 12.9114 32.9131 12.0231 33.6932 11.0502C31.9757 9.745 30.0828 9.09238 28.1112 8.77211C18.58 7.21308 10.1798 14.5309 10.3733 24.169C10.5185 31.5654 16.7597 38.1761 24.1318 38.8046C25.0874 38.8832 25.42 38.3997 25.7889 37.6867C31.0141 27.6678 38.8822 20.5857 49.5866 16.8996C74.3519 8.36725 100.206 23.6554 104.977 48.6785C107.33 60.9996 104.651 72.2512 97.1699 82.3366C96.9643 82.6145 96.7768 82.9106 96.5953 83.2067C96.5591 83.2611 96.6074 83.3699 96.6377 83.5995L96.6074 83.6056Z" fill="#22004B"/>
</svg>
