<svg width="90" height="90" viewBox="0 0 90 90" fill="none" xmlns="http://www.w3.org/2000/svg">
<circle cx="45" cy="45" r="45" fill="white"/>
<path d="M62.5033 29.2251H28.4967C25.4659 29.2251 23 31.691 23 34.7218V54.2783C23 57.309 25.4659 59.7749 28.4967 59.7749H62.5033C65.5341 59.7749 68 57.309 68 54.2783V34.7223C68.0006 31.691 65.5347 29.2251 62.5033 29.2251ZM59.8175 32.811L45.5 42.0353L31.1825 32.811H59.8175ZM62.5033 56.1896H28.4967C27.443 56.1896 26.5859 55.332 26.5859 54.2789V34.824L44.3937 46.2751C44.4176 46.29 44.4433 46.3002 44.4678 46.3139C44.4935 46.3283 44.5198 46.342 44.5461 46.3551C44.6842 46.4263 44.8264 46.4836 44.9717 46.5213C44.9866 46.5255 45.0016 46.5273 45.0165 46.5309C45.1761 46.5685 45.3374 46.5918 45.4988 46.5918H45.5C45.5012 46.5918 45.5024 46.5918 45.5024 46.5918C45.6638 46.5918 45.8251 46.5691 45.9847 46.5309C45.9996 46.5273 46.0146 46.5255 46.0295 46.5213C46.1748 46.4836 46.3164 46.4263 46.4551 46.3551C46.4813 46.342 46.5076 46.3283 46.5333 46.3139C46.5579 46.3002 46.5836 46.29 46.6075 46.2751L64.4152 34.824V54.2783C64.4146 55.332 63.557 56.1896 62.5033 56.1896Z" fill="#22004B"/>
</svg>
