<svg width="125" height="124" viewBox="0 0 125 124" fill="none" xmlns="http://www.w3.org/2000/svg">
<path d="M62.5 7.75C60.5316 7.75 58.609 8.46143 57.1289 9.92969L46.1426 20.9492C45.5475 21.2671 45.0439 21.7212 44.6777 22.2812L10.0098 56.6719C7.04956 59.5933 7.04956 64.3916 10.0098 67.3281L57.1289 114.07C60.0891 116.992 64.9109 116.992 67.8711 114.07L114.99 67.3281C117.95 64.4067 117.95 59.6084 114.99 56.6719L67.8711 9.92969C66.391 8.46143 64.4684 7.75 62.5 7.75ZM62.5 15.6211L109.253 62L62.5 108.379L15.7471 62L48.0957 29.9102L54.9316 36.6914C54.7485 37.3423 54.6875 38.0386 54.6875 38.75C54.6875 41.6108 56.2592 44.063 58.5938 45.4102V78.5898C56.2592 79.937 54.6875 82.3892 54.6875 85.25C54.6875 89.5337 58.1818 93 62.5 93C66.8182 93 70.3125 89.5337 70.3125 85.25C70.3125 82.3892 68.7408 79.937 66.4062 78.5898V48.1953L78.3691 60.0625C78.2013 60.6831 78.125 61.334 78.125 62C78.125 66.2837 81.6193 69.75 85.9375 69.75C90.2557 69.75 93.75 66.2837 93.75 62C93.75 57.7163 90.2557 54.25 85.9375 54.25C85.2661 54.25 84.61 54.3257 83.9844 54.4922L70.0684 40.6875C70.2362 40.0669 70.3125 39.416 70.3125 38.75C70.3125 34.4663 66.8182 31 62.5 31C61.7828 31 61.0809 31.0605 60.4248 31.2422L53.5889 24.4609L62.5 15.6211Z" fill="#22004B"/>
</svg>
