<svg width="156" height="157" viewBox="0 0 156 157" fill="none" xmlns="http://www.w3.org/2000/svg">
<path d="M24.375 24.5312V132.469H131.625V24.5312H24.375ZM34.125 34.3438H121.875V122.656H34.125V34.3438ZM77.5525 44.1562C58.4474 44.1562 43.875 58.7512 43.875 77.9346C43.875 93.3059 53.4651 106.464 67.1931 111.09C68.9725 111.404 69.5925 110.306 69.5925 109.413C69.5925 108.56 69.5544 103.814 69.5544 100.894C69.5544 100.894 59.8801 102.99 57.8716 96.7643C57.8716 96.7643 56.296 92.7546 54.0535 91.7047C54.0535 91.7047 50.9182 89.5286 54.282 89.5678C54.282 89.5678 57.6891 89.8449 59.5854 93.1517C62.5982 98.524 67.6562 96.9577 69.6306 96.0648C69.9377 93.8471 70.8354 92.291 71.8396 91.3981C64.142 90.5444 56.3672 89.415 56.3672 76.1044C56.3672 72.2873 57.4105 70.3836 59.614 67.9305C59.263 67.0326 58.0699 63.2994 59.9663 58.5109C62.8669 57.613 69.4783 62.248 69.4783 62.248C72.2229 61.5072 75.1937 61.079 78.1333 61.079C81.0729 61.079 84.0532 61.5072 86.7979 62.248C86.7979 62.248 93.4092 57.6179 96.3098 58.5109C98.2013 63.3386 96.9987 67.0375 96.6526 67.9305C98.8561 70.3836 100.214 72.2922 100.214 76.1044C100.214 89.4886 92.0912 90.5444 84.3984 91.3981C85.6757 92.4873 86.7598 94.5508 86.7598 97.8184C86.7598 102.489 86.7217 108.294 86.7217 109.423C86.7217 110.316 87.3426 111.399 89.083 111.09C102.806 106.459 112.125 93.3059 112.125 77.9346C112.125 58.7512 96.6576 44.1562 77.5525 44.1562ZM56.3672 90.6985C56.0942 90.62 55.8644 90.6661 55.7864 90.8231C55.7084 90.9801 55.8181 91.2027 56.0911 91.3597C56.3251 91.4775 56.5939 91.441 56.6719 91.2448C56.7499 91.0877 56.6402 90.8506 56.3672 90.6985ZM57.605 91.858C57.4746 91.8286 57.3502 91.8461 57.2527 91.9443C57.0577 92.1013 57.0949 92.4074 57.3289 92.6821C57.5629 92.8784 57.867 92.9934 58.062 92.7971C58.257 92.6401 58.2198 92.334 57.9858 92.0593C57.8688 91.9611 57.7354 91.8875 57.605 91.858ZM59.0522 93.6595C58.9121 93.6105 58.7598 93.6194 58.6428 93.6979C58.4088 93.8549 58.4088 94.2129 58.6428 94.522C58.8768 94.8311 59.2286 94.9856 59.4236 94.8286C59.6527 94.6716 59.6527 94.28 59.4236 93.9758C59.3261 93.8188 59.1924 93.7086 59.0522 93.6595ZM60.6328 95.6048C60.4738 95.5852 60.3304 95.6404 60.2329 95.7581C60.0428 95.9544 60.1162 96.3362 60.4233 96.611C60.7305 96.925 61.1138 96.971 61.3088 96.7355C61.5038 96.5785 61.3914 96.1479 61.1184 95.8731C60.9648 95.7161 60.7919 95.6244 60.6328 95.6048ZM63.2893 97.1572C62.9432 97.0787 62.5199 97.1891 62.4419 97.4638C62.3639 97.7386 62.6376 98.0561 63.0227 98.1346C63.3688 98.2916 63.7921 98.1265 63.8701 97.8567C63.9871 97.5868 63.7134 97.2749 63.2893 97.1572ZM68.5071 97.2817C68.122 97.3602 67.8492 97.6338 67.8882 97.9429C67.9272 98.2128 68.3124 98.3664 68.6975 98.2879C69.1216 98.2094 69.3944 97.9398 69.3164 97.665C69.2774 97.3903 68.8971 97.2376 68.5071 97.2817ZM65.9553 97.5884C65.5263 97.5884 65.2222 97.8215 65.2222 98.0963C65.2222 98.4053 65.5303 98.6434 65.9934 98.6041C66.4224 98.6041 66.7266 98.371 66.7266 98.0963C66.7266 97.7822 66.3453 97.5491 65.9553 97.5884Z" fill="#22004B"/>
</svg>
