<svg width="143" height="141" viewBox="0 0 143 141" fill="none" xmlns="http://www.w3.org/2000/svg">
<path d="M25.74 19.74L34.32 115.62L74.36 126.9L114.4 115.62C117.26 83.6609 120.12 51.6991 122.98 19.74H25.74ZM31.9851 25.38H116.735L109.049 111.263L74.36 121.034L39.6713 111.263L31.9851 25.38ZM53.0552 42.3L50.3069 76.14H87.459L86.286 90.24L74.36 91.986L62.5792 90.24L62.0598 84.6H51.0219L52.1391 98.7L74.3321 104.34L96.5529 98.7L99.385 64.86H63.1769L64.093 53.58H88.0008L88.66 59.22H99.2398L97.24 42.3H53.0552Z" fill="#22004B"/>
</svg>
