<svg width="90" height="90" viewBox="0 0 90 90" fill="none" xmlns="http://www.w3.org/2000/svg">
<circle cx="45" cy="45" r="45" fill="#22004B"/>
<path d="M45.2049 22C32.6082 22 23 31.8042 23 44.6908C23 55.0165 29.3232 63.8552 38.3746 66.9632C39.5478 67.1741 39.9566 66.4365 39.9566 65.8367C39.9566 65.2632 39.9315 62.0751 39.9315 60.1141C39.9315 60.1141 33.5528 61.5221 32.2285 57.3397C32.2285 57.3397 31.1896 54.6462 29.7111 53.9409C29.7111 53.9409 27.6439 52.4791 29.8617 52.5054C29.8617 52.5054 32.1082 52.6915 33.3585 54.9129C35.345 58.5218 38.6799 57.4696 39.9817 56.8698C40.1842 55.3801 40.7761 54.3348 41.4382 53.7349C36.3628 53.1614 31.2366 52.4028 31.2366 43.4613C31.2366 40.8972 31.9245 39.6183 33.3774 37.9705C33.1459 37.3673 32.3593 34.8595 33.6097 31.6428C35.5222 31.0396 39.8813 34.1532 39.8813 34.1532C41.6909 33.6556 43.6497 33.3679 45.5879 33.3679C47.5261 33.3679 49.4911 33.6556 51.3008 34.1532C51.3008 34.1532 55.6599 31.0429 57.5724 31.6428C58.8195 34.8858 58.0266 37.3706 57.7984 37.9705C59.2513 39.6183 60.1463 40.9005 60.1463 43.4613C60.1463 52.4522 54.7909 53.1614 49.7188 53.7349C50.5609 54.4666 51.2757 55.8528 51.2757 58.0478C51.2757 61.1854 51.2506 65.0851 51.2506 65.8431C51.2506 66.4429 51.66 67.1708 52.8075 66.9632C61.8557 63.8519 68 55.0165 68 44.6908C68 31.8042 57.8017 22 45.2049 22ZM31.2366 53.265C31.0566 53.2123 30.9051 53.2432 30.8537 53.3487C30.8022 53.4542 30.8745 53.6037 31.0545 53.7092C31.2088 53.7883 31.3861 53.7638 31.4375 53.6319C31.4889 53.5265 31.4166 53.3672 31.2366 53.265ZM32.0527 54.0439C31.9668 54.0241 31.8847 54.0359 31.8205 54.1018C31.6919 54.2073 31.7164 54.4129 31.8707 54.5975C32.025 54.7293 32.2255 54.8066 32.3541 54.6747C32.4826 54.5693 32.4581 54.3636 32.3039 54.1791C32.2267 54.1132 32.1387 54.0637 32.0527 54.0439ZM33.007 55.2541C32.9146 55.2211 32.8142 55.2271 32.737 55.2798C32.5827 55.3853 32.5827 55.6258 32.737 55.8334C32.8913 56.041 33.1232 56.1449 33.2518 56.0394C33.4029 55.9339 33.4029 55.6708 33.2518 55.4665C33.1875 55.361 33.0994 55.287 33.007 55.2541ZM34.0491 56.5608C33.9442 56.5476 33.8497 56.5847 33.7854 56.6638C33.6601 56.7956 33.7085 57.0521 33.911 57.2367C34.1135 57.4476 34.3663 57.4786 34.4948 57.3204C34.6234 57.2149 34.5493 56.9256 34.3693 56.741C34.268 56.6356 34.154 56.574 34.0491 56.5608ZM35.8006 57.6036C35.5724 57.5509 35.2933 57.625 35.2419 57.8096C35.1905 57.9942 35.3709 58.2075 35.6249 58.2602C35.8531 58.3657 36.1322 58.2548 36.1836 58.0735C36.2607 57.8923 36.0803 57.6827 35.8006 57.6036ZM39.2409 57.6873C38.987 57.74 38.8072 57.9238 38.8329 58.1315C38.8586 58.3127 39.1126 58.4159 39.3665 58.3632C39.6461 58.3105 39.826 58.1293 39.7746 57.9448C39.7488 57.7602 39.4981 57.6576 39.2409 57.6873ZM37.5585 57.8933C37.2756 57.8933 37.0751 58.0499 37.0751 58.2345C37.0751 58.4421 37.2782 58.602 37.5836 58.5756C37.8664 58.5756 38.067 58.419 38.067 58.2345C38.067 58.0235 37.8156 57.8669 37.5585 57.8933Z" fill="white"/>
</svg>
