<svg width="22" height="22" viewBox="0 0 22 22" fill="none" xmlns="http://www.w3.org/2000/svg">
<g clip-path="url(#clip0_207_312)">
<path d="M5.12098 7.12854H0.704448C0.508435 7.12854 0.349609 7.28537 0.349609 7.47877V21.4829C0.349609 21.6764 0.508435 21.8332 0.704448 21.8332H5.12098C5.317 21.8332 5.47582 21.6764 5.47582 21.4829V7.47877C5.47582 7.28537 5.317 7.12854 5.12098 7.12854Z" fill="#22004B"/>
<path d="M2.91436 0.166733C1.30737 0.166733 0 1.45572 0 3.04009C0 4.62517 1.30737 5.91464 2.91436 5.91464C4.52008 5.91464 5.82638 4.6251 5.82638 3.04009C5.82645 1.45572 4.52008 0.166733 2.91436 0.166733Z" fill="#22004B"/>
<path d="M16.3548 6.78049C14.5809 6.78049 13.2697 7.53313 12.4743 8.38832V7.47878C12.4743 7.28538 12.3155 7.12855 12.1195 7.12855H7.88987C7.69386 7.12855 7.53503 7.28538 7.53503 7.47878V21.4829C7.53503 21.6764 7.69386 21.8332 7.88987 21.8332H12.2968C12.4928 21.8332 12.6516 21.6764 12.6516 21.4829V14.5541C12.6516 12.2193 13.2941 11.3097 14.9431 11.3097C16.7391 11.3097 16.8818 12.7679 16.8818 14.6743V21.483C16.8818 21.6765 17.0406 21.8333 17.2366 21.8333H21.6451C21.8411 21.8333 22 21.6765 22 21.483V13.8015C22 10.3297 21.3292 6.78049 16.3548 6.78049Z" fill="#22004B"/>
</g>
<defs>
<clipPath id="clip0_207_312">
<rect width="22" height="21.7143" fill="white" transform="translate(0 0.142853)"/>
</clipPath>
</defs>
</svg>
