<svg width="22" height="22" viewBox="0 0 22 22" fill="none" xmlns="http://www.w3.org/2000/svg">
<path d="M10.8557 0.301376C4.69732 0.301376 0 4.96323 0 11.0907C0 16.0006 3.09132 20.2033 7.51646 21.6811C8.09003 21.7814 8.2899 21.4307 8.2899 21.1455C8.2899 20.8728 8.27762 19.3569 8.27762 18.4244C8.27762 18.4244 5.15915 19.0939 4.51172 17.1052C4.51172 17.1052 4.00383 15.8245 3.28097 15.4891C3.28097 15.4891 2.27035 14.794 3.35463 14.8065C3.35463 14.8065 4.45289 14.895 5.06417 15.9513C6.03532 17.6673 7.66575 17.167 8.30218 16.8818C8.40118 16.1734 8.69052 15.6764 9.01423 15.3912C6.53294 15.1185 4.02679 14.7577 4.02679 10.5061C4.02679 9.28688 4.3631 8.67881 5.07338 7.89524C4.96024 7.60846 4.57566 6.41599 5.18694 4.88647C6.12194 4.59968 8.25307 6.08018 8.25307 6.08018C9.13778 5.84354 10.0954 5.70676 11.043 5.70676C11.9905 5.70676 12.9512 5.84354 13.8359 6.08018C13.8359 6.08018 15.9671 4.60125 16.9021 4.88647C17.5118 6.42853 17.1241 7.61002 17.0126 7.89524C17.7228 8.67881 18.1604 9.28845 18.1604 10.5061C18.1604 14.7813 15.5422 15.1185 13.0625 15.3912C13.4742 15.7391 13.8237 16.3982 13.8237 17.4419C13.8237 18.9338 13.8114 20.7881 13.8114 21.1485C13.8114 21.4338 14.0115 21.7799 14.5725 21.6811C18.9961 20.2017 22 16.0006 22 11.0907C22 4.96323 17.0142 0.301376 10.8557 0.301376ZM4.02679 15.1677C3.93879 15.1426 3.86471 15.1574 3.83956 15.2075C3.81442 15.2577 3.84978 15.3288 3.93778 15.3789C4.01321 15.4165 4.09986 15.4049 4.125 15.3422C4.15014 15.292 4.11479 15.2163 4.02679 15.1677ZM4.42578 15.5381C4.38375 15.5287 4.34365 15.5343 4.31222 15.5656C4.24936 15.6158 4.26135 15.7135 4.33677 15.8013C4.4122 15.864 4.51025 15.9007 4.5731 15.838C4.63596 15.7879 4.62398 15.6901 4.54855 15.6024C4.51083 15.571 4.46782 15.5475 4.42578 15.5381ZM4.8923 16.1135C4.84712 16.0978 4.79804 16.1007 4.76032 16.1258C4.6849 16.1759 4.6849 16.2903 4.76032 16.389C4.83575 16.4877 4.94914 16.5371 5.012 16.4869C5.08585 16.4368 5.08585 16.3117 5.012 16.2145C4.98057 16.1644 4.93748 16.1292 4.8923 16.1135ZM5.40179 16.7349C5.35052 16.7286 5.30431 16.7462 5.27288 16.7838C5.21159 16.8465 5.23526 16.9685 5.33426 17.0562C5.43326 17.1565 5.55684 17.1713 5.6197 17.096C5.68256 17.0459 5.64631 16.9083 5.55831 16.8206C5.50881 16.7704 5.45305 16.7411 5.40179 16.7349ZM6.25809 17.2307C6.14652 17.2056 6.01008 17.2409 5.98493 17.3287C5.95979 17.4164 6.04801 17.5178 6.17215 17.5429C6.28373 17.5931 6.42017 17.5403 6.44531 17.4541C6.48303 17.368 6.39481 17.2683 6.25809 17.2307ZM7.94001 17.2705C7.81587 17.2956 7.72794 17.383 7.74051 17.4817C7.75308 17.5679 7.87725 17.617 8.0014 17.5919C8.13811 17.5668 8.22604 17.4807 8.20089 17.3929C8.18832 17.3052 8.06573 17.2564 7.94001 17.2705ZM7.11747 17.3684C6.97918 17.3684 6.88114 17.4429 6.88114 17.5307C6.88114 17.6294 6.98046 17.7054 7.12974 17.6929C7.26803 17.6929 7.36607 17.6184 7.36607 17.5307C7.36607 17.4304 7.24318 17.3559 7.11747 17.3684Z" fill="#22004B"/>
</svg>
