<svg width="90" height="90" viewBox="0 0 90 90" fill="none" xmlns="http://www.w3.org/2000/svg">
<circle cx="45" cy="45" r="45" fill="#22004B"/>
<path d="M22 29.25C22 50.651 39.349 68 60.75 68C61.7155 68 62.6728 67.9647 63.6208 67.8952C64.7085 67.8155 65.2523 67.7758 65.7475 67.4908C66.1575 67.2548 66.5462 66.8363 66.7517 66.41C67 65.8955 67 65.2952 67 64.095V57.0518C67 56.0423 67 55.5375 66.8338 55.105C66.6873 54.7228 66.4487 54.3825 66.1397 54.114C65.79 53.81 65.3155 53.6375 64.367 53.2925L56.35 50.3773C55.2462 49.976 54.6943 49.7752 54.1708 49.8092C53.709 49.8392 53.2648 49.997 52.8873 50.2645C52.4593 50.5677 52.1573 51.0713 51.553 52.0785L49.5 55.5C42.8753 52.4998 37.5048 47.1223 34.5 40.5L37.9216 38.447C38.9286 37.8428 39.4322 37.5407 39.7355 37.1126C40.003 36.7352 40.1608 36.2909 40.1908 35.8292C40.2248 35.3057 40.024 34.7538 39.6227 33.6501L36.7075 25.633C36.3625 24.6844 36.19 24.2101 35.8861 23.8602C35.6175 23.5512 35.2772 23.3129 34.8951 23.1661C34.4624 23 33.9577 23 32.9483 23H25.905C24.7047 23 24.1045 23 23.5899 23.2481C23.1637 23.4537 22.7454 23.8425 22.5093 24.2526C22.2242 24.7477 22.1844 25.2915 22.1047 26.3793C22.0353 27.3271 22 28.2844 22 29.25Z" stroke="white" stroke-width="4" stroke-linecap="round" stroke-linejoin="round"/>
</svg>
