<svg width="107" height="107" viewBox="0 0 107 107" fill="none" xmlns="http://www.w3.org/2000/svg">
<path d="M60.3213 0C66.2063 13.6174 39.2222 22.027 36.7144 33.3706C34.4156 43.7948 52.7477 55.9075 52.7644 55.9075C49.9807 51.5941 47.9327 48.0413 45.1406 41.3288C40.4176 29.9767 73.9052 19.703 60.3213 0ZM78.2438 18.8588C78.2438 18.8588 54.57 20.3802 53.3663 35.5106C52.8313 42.2483 59.594 45.7927 59.7863 50.6913C59.9451 54.6954 55.7738 58.0475 55.7738 58.0475C55.7738 58.0475 63.3641 56.6013 65.7381 50.4906C68.3713 43.7112 60.6055 39.1302 61.3913 33.705C62.1436 28.5138 78.2438 18.8588 78.2438 18.8588ZM41.0613 53.8344C41.0613 53.8344 19.3938 53.5251 19.3938 59.6525C19.3938 66.0558 47.7571 66.5323 68.0119 62.595C68.0119 62.595 73.3953 58.8918 74.8331 57.5125C61.5584 60.2209 31.2975 60.5219 31.2975 58.1813C31.2975 56.0245 41.0613 53.8344 41.0613 53.8344ZM82.7244 53.8344C80.6011 54.0016 78.3106 54.8208 76.2375 56.3088C81.1194 55.2555 85.2656 58.2816 85.2656 61.7256C85.2656 69.4831 74.0306 76.7725 74.0306 76.7725C74.0306 76.7725 91.4181 74.7997 91.4181 62.06C91.4181 56.2753 87.3973 53.4666 82.7244 53.8344ZM35.845 65.7381C32.518 65.7381 27.5525 68.3463 27.5525 70.8206C27.5525 75.7945 52.5638 79.623 71.0881 72.3588L64.6681 68.4131C52.1124 72.434 28.9903 71.1216 35.845 65.7381ZM38.9213 76.9062C34.3654 76.9062 31.3644 79.6565 31.3644 81.7213C31.3644 88.1078 58.5741 88.7515 69.3494 82.2563L62.5281 77.9094C54.4781 81.3116 34.2734 81.8299 38.9213 76.9062ZM23.7406 82.6575C16.3175 82.507 11.5025 85.8424 11.5025 88.6094C11.5025 103.322 87.4725 102.645 87.4725 87.6063C87.4725 85.1068 84.5885 83.8947 83.5269 83.3263C89.7379 97.7044 21.3331 96.5591 21.3331 88.0744C21.3331 86.1434 26.3655 84.2959 31.03 85.1988L27.0844 82.925C25.9224 82.7495 24.8023 82.6826 23.7406 82.6575ZM95.4975 92.555C83.9448 103.506 54.6703 107.476 25.2119 100.714C54.662 112.768 95.3554 106.005 95.4975 92.555Z" fill="#22004B"/>
</svg>
