<svg width="132" height="131" viewBox="0 0 132 131" fill="none" xmlns="http://www.w3.org/2000/svg">
<path d="M17.6034 10.48C13.7466 10.48 10.56 13.6424 10.56 17.4701V113.53C10.56 117.358 13.7466 120.52 17.6034 120.52H114.397C118.253 120.52 121.44 117.368 121.44 113.53V17.4701C121.44 13.6424 118.264 10.48 114.397 10.48H17.6034ZM17.6034 15.72H114.397C115.376 15.72 116.16 16.4978 116.16 17.4701V113.53C116.16 114.502 115.376 115.28 114.397 115.28H17.6034C16.6237 115.28 15.84 114.502 15.84 113.53V17.4701C15.84 16.4978 16.6237 15.72 17.6034 15.72ZM60.72 60.26V93.2044C60.72 98.2602 58.7916 99.56 55.44 99.56C51.9337 99.56 49.5 97.3903 47.8912 94.5758L39.6 99.56C42.0028 104.606 47.8912 110.04 56.0587 110.04C65.0925 110.04 71.28 105.271 71.28 94.801V60.26H60.72ZM93.5962 60.26C84.6037 60.26 78.8391 65.9708 78.8391 73.4726C78.8391 81.6089 83.6756 85.457 90.9459 88.5273L93.4622 89.6019C98.0512 91.5976 100.32 92.8155 100.32 96.244C100.32 99.0994 98.1337 101.167 93.9572 101.167C88.9866 101.167 86.6353 97.8201 84.48 94.32L76.56 99.56C79.5197 105.363 84.8306 110.04 94.1841 110.04C103.754 110.04 110.88 105.107 110.88 96.111C110.88 87.7598 106.054 84.0447 97.4841 80.4012L94.9678 79.3369C90.6469 77.4742 88.77 76.2665 88.77 73.2679C88.77 70.8423 90.6469 68.9797 93.5962 68.9797C96.4941 68.9797 98.3503 70.1976 100.072 73.2679L107.92 68.2735C104.61 62.4706 100 60.26 93.5962 60.26Z" fill="#22004B"/>
</svg>
