<svg width="90" height="90" viewBox="0 0 90 90" fill="none" xmlns="http://www.w3.org/2000/svg">
<circle cx="45" cy="45" r="45" fill="white"/>
<g clip-path="url(#clip0_228_2715)">
<path d="M32.4748 36.4771H23.441C23.0401 36.4771 22.7152 36.8021 22.7152 37.2029V66.2247C22.7152 66.6256 23.0401 66.9505 23.441 66.9505H32.4748C32.8758 66.9505 33.2006 66.6256 33.2006 66.2247V37.2029C33.2006 36.8021 32.8758 36.4771 32.4748 36.4771Z" fill="#22004B"/>
<path d="M27.9612 22.0496C24.6742 22.0496 22 24.7208 22 28.0042C22 31.2891 24.6742 33.9613 27.9612 33.9613C31.2456 33.9613 33.9176 31.2889 33.9176 28.0042C33.9177 24.7208 31.2456 22.0496 27.9612 22.0496Z" fill="#22004B"/>
<path d="M55.453 35.7556C51.8246 35.7556 49.1425 37.3154 47.5157 39.0876V37.2027C47.5157 36.8019 47.1908 36.4769 46.7899 36.4769H38.1384C37.7375 36.4769 37.4126 36.8019 37.4126 37.2027V66.2245C37.4126 66.6255 37.7375 66.9503 38.1384 66.9503H47.1525C47.5534 66.9503 47.8783 66.6255 47.8783 66.2245V51.8655C47.8783 47.0268 49.1926 45.1417 52.5656 45.1417C56.239 45.1417 56.5309 48.1637 56.5309 52.1144V66.2247C56.5309 66.6256 56.8558 66.9505 57.2567 66.9505H66.2741C66.6751 66.9505 67 66.6256 67 66.2247V50.3057C67 43.1108 65.628 35.7556 55.453 35.7556Z" fill="#22004B"/>
</g>
<defs>
<clipPath id="clip0_228_2715">
<rect width="45" height="45" fill="white" transform="translate(22 22)"/>
</clipPath>
</defs>
</svg>
