<svg width="127" height="126" viewBox="0 0 127 126" fill="none" xmlns="http://www.w3.org/2000/svg">
<path d="M106.918 86.058C93.853 103.325 65.9553 97.4978 48.0642 98.3325C48.0642 98.3325 44.8945 98.511 41.7089 99.0308C41.7089 99.0308 42.9154 98.5215 44.4553 97.9913C57.0177 93.681 62.955 92.8148 70.5908 88.9245C84.9312 81.6375 99.2082 65.7563 102.113 49.2608C96.6523 65.1263 80.047 78.7815 64.9287 84.3255C54.5835 88.116 35.8669 91.8015 35.8616 91.8015C35.8722 91.812 35.1155 91.413 35.1049 91.4025C22.3785 85.26 22.008 57.9075 45.1273 49.0928C55.2662 45.2288 64.9552 47.3498 75.9142 44.7615C87.5982 42.0053 101.134 33.3165 106.632 21.9555C112.797 40.11 120.205 68.502 106.918 86.058ZM107.14 16.338C105.59 20.0025 103.69 23.3048 101.505 26.2605C91.8792 16.4588 78.4384 10.3478 63.5794 10.3478C34.3535 10.3478 10.5833 33.9308 10.5833 62.9213C10.5833 78.12 17.1185 91.8225 27.5431 101.425L28.7073 102.443C26.7705 100.879 26.4689 98.0543 28.0405 96.1275C29.6227 94.2008 32.4697 93.9068 34.4064 95.466C36.3485 97.0305 36.6501 99.8603 35.0732 101.787C33.5068 103.714 30.6546 104.008 28.7126 102.449L29.501 103.142C38.7191 110.849 50.6042 115.5 63.5794 115.5C91.5088 115.5 114.448 93.933 116.411 66.717C117.861 53.3873 113.893 36.4613 107.14 16.338Z" fill="#22004B"/>
</svg>
