<svg width="111" height="107" viewBox="0 0 111 107" fill="none" xmlns="http://www.w3.org/2000/svg">
<path d="M102.046 65.2031C89.5155 67.6942 88.6049 63.6023 88.6049 63.6023C101.843 44.6683 107.38 20.6351 102.601 14.7543C89.5762 -1.29568 67.0249 6.29881 66.6477 6.49525L66.5263 6.51615C63.7719 5.98339 60.9715 5.70211 58.1623 5.67604C52.4909 5.59244 48.1896 7.10967 44.9203 9.49627C44.9203 9.49627 4.6915 -6.47849 6.56463 29.588C6.96354 37.2619 17.9681 87.6857 31.106 72.4298C35.9449 66.8207 40.5844 62.1102 40.5844 62.1102C42.8824 63.5856 45.6444 64.3379 48.5365 64.0663L48.762 63.8824C48.6957 64.6048 48.7263 65.3325 48.853 66.0474C45.471 69.6921 46.4683 70.3316 39.7042 71.6733C32.8621 73.0317 36.8858 75.4517 39.5047 76.0871C42.6873 76.8561 50.0497 77.9428 55.0274 71.2303L54.828 71.9951C56.1548 73.0192 57.0826 78.6534 56.9265 83.761C56.7705 88.8685 56.6664 92.3711 57.707 95.113C58.7476 97.8549 59.7883 104.016 68.6769 102.218C76.1044 100.685 79.9504 96.7013 80.4924 90.0723C80.8739 85.3576 81.7324 86.0514 81.7931 81.8383L82.4869 79.8404C83.2804 73.4455 82.617 71.3849 87.1914 72.3462L88.3057 72.4424C91.6747 72.5887 96.0844 71.9199 98.6686 70.7621C104.24 68.271 107.54 64.1081 102.046 65.2031Z" fill="white"/>
<path d="M55.5607 68.8269C55.2138 80.7223 55.6474 92.7013 56.8528 95.5769C58.0582 98.4525 60.6468 104.145 69.5398 102.315C76.9672 100.781 79.6729 97.8089 80.8436 91.2509L83.5882 70.2814M44.903 9.1953C44.903 9.1953 4.64813 -6.6708 6.52125 29.3957C6.92016 37.0696 17.9248 87.4934 31.0627 72.2375C35.8582 66.666 40.1941 62.3066 40.1941 62.3066M66.6434 6.29877C65.2559 6.71674 89.0341 -2.0815 102.554 14.5662C107.323 20.447 101.795 44.4802 88.5572 63.4142" stroke="#22004B" stroke-width="1.79" stroke-linecap="round" stroke-linejoin="round"/>
<path d="M88.5615 63.4059C88.5615 63.4059 89.4287 67.5019 102.003 65.0025C107.497 63.9074 104.188 68.0704 98.6209 70.5615C94.0508 72.6095 83.8007 73.132 83.6316 70.3107C83.198 63.0171 89.0255 65.2324 88.6049 63.4059C88.2233 61.7591 85.6131 60.1457 83.8961 56.1165C82.3915 52.6055 63.257 25.6466 89.2032 29.6465C90.1571 29.4584 82.4392 5.8223 58.1579 5.47956C33.8767 5.13683 34.6441 34.2567 34.6441 34.2567" stroke="#22004B" stroke-width="1.79" stroke-linecap="round" stroke-linejoin="bevel"/>
<path d="M48.7663 65.9053C45.3843 69.55 46.3815 70.1895 39.6175 71.5312C32.7753 72.8896 36.7991 75.3096 39.418 75.9449C42.6006 76.714 49.963 77.8007 54.9407 71.0839C56.4582 69.0359 54.932 65.7757 52.8507 64.9481C51.8448 64.5469 50.5007 64.0453 48.775 65.9095L48.7663 65.9053Z" stroke="#22004B" stroke-width="1.79" stroke-linejoin="round"/>
<path d="M48.5451 65.8426C48.1983 63.6984 49.2736 61.1529 50.4226 58.1686C52.1483 53.6964 56.1287 49.2241 52.9461 35.0257C50.5744 24.4511 34.6485 32.823 34.6485 34.2567C34.6485 35.6903 35.3682 41.5293 34.3883 48.3213C33.1005 57.1906 40.2418 64.689 48.4628 63.9241" stroke="#22004B" stroke-width="1.79" stroke-linecap="round" stroke-linejoin="round"/>
<path d="M44.7555 34.0435C44.6818 34.5325 45.6878 35.8408 46.9929 36.0163C48.298 36.1919 49.4123 35.172 49.4861 34.6788C49.5598 34.1856 48.5538 33.6506 47.2487 33.4751C45.9436 33.2995 44.8206 33.5587 44.7555 34.0435Z" fill="#22004B" stroke="#22004B" stroke-width="0.5975"/>
<path d="M84.4901 33.0446C84.5595 33.5336 83.5578 34.8419 82.2527 35.0174C80.9476 35.193 79.8246 34.1731 79.7596 33.6799C79.6945 33.1867 80.6918 32.6517 81.9969 32.4762C83.302 32.3006 84.425 32.5598 84.4901 33.0446Z" fill="#22004B" stroke="#22004B" stroke-width="0.2975"/>
<path d="M89.1556 29.6549C89.3724 33.5002 88.297 36.1125 88.1583 40.2044C87.9588 46.148 91.0981 52.9525 86.3676 59.7654" stroke="#22004B" stroke-width="1.79" stroke-linecap="round" stroke-linejoin="round"/>
</svg>
