<svg width="142" height="142" viewBox="0 0 142 142" fill="none" xmlns="http://www.w3.org/2000/svg">
<path d="M96.578 15.975C95.6018 15.9217 94.7657 16.6836 94.7302 17.6598C94.677 18.6361 95.4423 19.4717 96.4186 19.525H96.5052C97.446 19.525 98.2274 18.7778 98.2629 17.8193C98.3161 16.8431 97.5543 16.0105 96.578 15.975ZM47.7135 16.1518C46.7373 16.0453 45.8474 16.7391 45.7409 17.7153C45.6167 18.6916 46.3282 19.5602 47.3044 19.6845H47.4986C48.3861 19.6845 49.1497 19.0296 49.2562 18.1244C49.3805 17.1481 48.672 16.2583 47.7135 16.1518ZM89.6271 17.2924C89.3952 17.2846 89.1576 17.325 88.9268 17.4137C88.0216 17.7687 87.5595 18.7961 87.9145 19.7191C88.1985 20.4114 88.8755 20.8562 89.5855 20.8562C89.7985 20.8562 90.0104 20.8202 90.2234 20.7314C91.1286 20.3764 91.5907 19.3486 91.2357 18.4433C90.9694 17.7511 90.3227 17.3157 89.6271 17.2924ZM40.3882 17.4969C40.1596 17.5341 39.9346 17.6169 39.726 17.75C38.8918 18.2647 38.6423 19.3668 39.1748 20.201C39.4943 20.7335 40.0798 21.033 40.6655 21.033C40.985 21.033 41.321 20.944 41.605 20.7488C42.4393 20.234 42.6883 19.1355 42.1736 18.3012C41.7875 17.6888 41.0738 17.3854 40.3882 17.4969ZM54.3247 18.2353C53.6358 18.2062 52.9663 18.5884 52.6468 19.2407C52.2208 20.1282 52.6121 21.1929 53.4996 21.6189C53.7304 21.7254 53.9965 21.7784 54.245 21.7784C54.9195 21.7784 55.5587 21.4051 55.8605 20.7661C56.2687 19.8786 55.8952 18.8312 55.0077 18.4052C54.7858 18.2987 54.5543 18.245 54.3247 18.2353ZM102.87 18.7138C102.418 18.7093 101.965 18.8772 101.619 19.2234C100.909 19.9156 100.909 21.0341 101.601 21.7264C101.939 22.0814 102.398 22.2568 102.86 22.2568C103.304 22.2568 103.767 22.0987 104.104 21.7437C104.797 21.0692 104.814 19.933 104.122 19.2407C103.776 18.8946 103.323 18.7182 102.87 18.7138ZM82.9882 20.5997C82.7594 20.6385 82.5346 20.7231 82.326 20.8562C81.5095 21.3887 81.2596 22.4903 81.7921 23.3246C82.1294 23.8393 82.7144 24.122 83.3002 24.122C83.6197 24.122 83.9587 24.0329 84.2605 23.8377C85.077 23.3229 85.3057 22.2244 84.7909 21.3901C84.3915 20.7777 83.6746 20.4832 82.9882 20.5997ZM60.3777 21.8443C59.9944 21.8329 59.6178 21.9459 59.304 22.1664C58.9903 22.3869 58.7565 22.7031 58.6374 23.0676C58.5184 23.4321 58.5206 23.8254 58.6437 24.1886C58.7668 24.5517 59.0042 24.8653 59.3204 25.0823H59.3238L59.3273 25.0857C62.2453 27.1388 65.306 29.7956 68.4034 32.8687C64.8326 36.6734 61.2796 41.035 57.8331 45.8484C51.0257 46.4491 44.6865 47.5262 38.9564 48.9685C37.872 44.7056 37.1418 40.7002 36.8832 37.1467C36.8569 36.6984 36.6617 36.2767 36.3368 35.9666C36.0119 35.6565 35.5816 35.4811 35.1325 35.4757C34.8846 35.4724 34.6387 35.5211 34.4107 35.6186C34.1827 35.7161 33.9776 35.8603 33.8088 36.0419C33.6399 36.2235 33.511 36.4385 33.4303 36.6729C33.3496 36.9074 33.3189 37.1562 33.3402 37.4033C33.6179 41.2196 34.3819 45.4367 35.5104 49.8837C32.0088 50.907 28.7755 52.0729 25.8935 53.3783C25.7356 53.4467 25.5884 53.5378 25.4567 53.6487C25.3489 53.6767 25.2385 53.6784 25.1343 53.7284C24.2468 54.1367 23.8732 55.2018 24.2814 56.0893C24.5832 56.7283 25.2225 57.1016 25.897 57.1016C26.1455 57.1016 26.4116 57.0486 26.6423 56.9421C26.74 56.8952 26.8067 56.8158 26.8919 56.7549C27.0526 56.729 27.2089 56.6812 27.3565 56.6128C30.0398 55.3974 33.0884 54.2994 36.4187 53.3263C38.0625 58.9369 40.3183 64.8965 43.1581 71.0104C40.6579 76.3962 38.5853 81.6711 37.0081 86.6838C33.4539 85.6712 30.1956 84.5184 27.36 83.2343H27.3565C27.3553 83.2332 27.3542 83.232 27.353 83.2308C27.3496 83.2293 27.3461 83.2289 27.3426 83.2274C27.1321 83.1311 26.9048 83.0769 26.6735 83.0679C26.3217 83.0552 25.974 83.1475 25.6747 83.3329C25.3753 83.5183 25.1379 83.7886 24.9926 84.1093C24.8473 84.43 24.8007 84.7867 24.8586 85.134C24.9165 85.4813 25.0765 85.8036 25.318 86.0597V86.0632C25.4729 86.2272 25.6576 86.3601 25.8623 86.455C25.8755 86.4613 25.8835 86.4732 25.897 86.4792C25.9271 86.4931 25.9599 86.4954 25.9906 86.507C28.9822 87.8557 32.3571 89.0531 36.0096 90.0986C35.5012 91.929 35.0371 93.7334 34.6645 95.4756C34.6095 95.7057 34.601 95.9444 34.6396 96.1778C34.6782 96.4112 34.763 96.6346 34.8891 96.8347C35.0153 97.0349 35.1801 97.2078 35.374 97.3433C35.5679 97.4789 35.7869 97.5743 36.0182 97.6239C36.2495 97.6736 36.4884 97.6766 36.7209 97.6326C36.9533 97.5886 37.1747 97.4987 37.3718 97.368C37.569 97.2373 37.7381 97.0685 37.8691 96.8715C38.0001 96.6745 38.0904 96.4533 38.1348 96.2209C38.494 94.5413 38.9466 92.7918 39.4417 91.0138C44.5673 92.2766 50.1975 93.2207 56.1829 93.8219C60.1381 99.5784 64.2704 104.711 68.4172 109.128C66.6316 110.902 64.8575 112.564 63.1165 114.009C62.9342 114.157 62.7831 114.34 62.6719 114.546C62.5607 114.753 62.4915 114.98 62.4685 115.213C62.4455 115.447 62.4691 115.683 62.5379 115.907C62.6066 116.132 62.7192 116.34 62.8692 116.521C63.0191 116.702 63.2034 116.851 63.4113 116.96C63.6193 117.069 63.8467 117.135 64.0806 117.156C64.3145 117.176 64.5501 117.15 64.7738 117.079C64.9975 117.008 65.2048 116.893 65.3838 116.741C67.2018 115.232 69.0424 113.514 70.8856 111.686C73.4989 114.282 76.1021 116.589 78.6547 118.537C78.6672 118.547 78.6731 118.561 78.6859 118.571V118.561C78.8706 118.709 79.083 118.818 79.3106 118.883C79.5382 118.947 79.7763 118.965 80.0111 118.937C80.2459 118.908 80.4725 118.832 80.6777 118.715C80.8829 118.597 81.0625 118.439 81.206 118.251C81.3494 118.063 81.4539 117.848 81.5131 117.619C81.5724 117.39 81.5853 117.152 81.5511 116.918C81.5169 116.684 81.4363 116.459 81.3139 116.257C81.1916 116.054 81.0301 115.878 80.8388 115.739C78.4101 113.888 75.9019 111.661 73.3678 109.138C77.5159 104.726 81.6531 99.5978 85.6125 93.8427C91.6247 93.247 97.2664 92.2894 102.416 91.0277C103.262 94.0576 103.921 96.961 104.371 99.6877C104.448 100.153 104.706 100.568 105.088 100.843C105.278 100.979 105.492 101.076 105.719 101.129C105.946 101.182 106.181 101.19 106.412 101.152C106.642 101.115 106.862 101.032 107.06 100.909C107.258 100.786 107.43 100.625 107.567 100.436C107.703 100.246 107.8 100.032 107.853 99.8048C107.906 99.5777 107.914 99.3424 107.876 99.1122C107.406 96.2634 106.729 93.2556 105.862 90.1367C108.875 89.2795 111.707 88.3241 114.279 87.2593C114.498 87.1723 114.697 87.0427 114.865 86.8781C115.033 86.7135 115.167 86.5172 115.258 86.3005C115.35 86.0838 115.397 85.8511 115.398 85.6159C115.399 85.3807 115.353 85.1477 115.263 84.9304C115.173 84.7131 115.041 84.5158 114.874 84.3501C114.707 84.1844 114.509 84.0535 114.291 83.9651C114.073 83.8766 113.839 83.8324 113.604 83.8349C113.369 83.8374 113.137 83.8866 112.921 83.9797C110.472 84.9929 107.749 85.9101 104.829 86.7358C103.243 81.6931 101.181 76.4021 98.6616 70.9827C101.507 64.8612 103.755 58.9094 105.404 53.2916C107.433 53.8812 109.394 54.5006 111.194 55.1845C111.411 55.2687 111.643 55.3093 111.876 55.3039C112.109 55.2985 112.339 55.2473 112.552 55.1531C112.766 55.0589 112.958 54.9237 113.119 54.7551C113.28 54.5865 113.407 54.3878 113.491 54.1704C113.575 53.953 113.616 53.7212 113.61 53.4881C113.605 53.255 113.554 53.0253 113.459 52.812C113.365 52.5988 113.23 52.4061 113.061 52.2451C112.893 52.0841 112.694 51.9579 112.477 51.8737C112.472 51.8717 112.468 51.8687 112.463 51.8667C112.461 51.8659 112.458 51.8676 112.456 51.8667C110.548 51.1419 108.486 50.4886 106.358 49.8699C107.14 46.8069 107.75 43.8537 108.133 41.0746V41.0711V41.0677C108.171 40.8181 108.155 40.5633 108.087 40.3203C108.019 40.0773 107.899 39.8516 107.737 39.6584C107.574 39.4651 107.373 39.3087 107.145 39.1996C106.917 39.0905 106.669 39.0312 106.417 39.0257C105.98 39.0169 105.555 39.1694 105.224 39.454C104.893 39.7386 104.678 40.1354 104.621 40.5684C104.621 40.5711 104.618 40.5727 104.618 40.5754V40.5788C104.618 40.58 104.618 40.5812 104.618 40.5823C104.258 43.1955 103.68 46.004 102.933 48.9304C97.1899 47.4928 90.8056 46.4435 83.9866 45.8484C80.5296 41.0263 76.9664 36.64 73.3852 32.834C75.9512 30.28 78.4892 28.0269 80.9462 26.1639C81.2459 25.9427 81.4685 25.6327 81.5823 25.278C81.6961 24.9233 81.6954 24.5418 81.5804 24.1875C81.4653 23.8332 81.2418 23.5241 80.9413 23.3039C80.6408 23.0837 80.2787 22.9636 79.9062 22.9606C79.5071 22.9579 79.1187 23.0898 78.8038 23.335C76.2022 25.3076 73.5445 27.6617 70.8787 30.3102C67.6701 27.1347 64.4758 24.3638 61.3727 22.1805C61.0826 21.9707 60.7357 21.8534 60.3777 21.8443ZM36.3528 22.9987C35.6647 23.0245 35.0209 23.447 34.7546 24.1393C34.3996 25.0445 34.8613 26.0758 35.7843 26.4308C35.9973 26.5196 36.2096 26.5556 36.4048 26.5556C37.1326 26.5556 37.8061 26.1112 38.0724 25.4012C38.4274 24.496 37.9657 23.4647 37.0427 23.1097C36.8164 23.0253 36.5822 22.9901 36.3528 22.9987ZM106.365 24.954C106.139 24.9193 105.9 24.93 105.665 24.9921C104.706 25.2406 104.141 26.1973 104.371 27.1381C104.584 27.9546 105.31 28.4901 106.091 28.4901C106.233 28.4901 106.393 28.4701 106.535 28.4347C107.475 28.1862 108.062 27.2299 107.814 26.2714C107.628 25.5658 107.043 25.058 106.365 24.954ZM35.1637 29.9427C34.1875 29.8895 33.3345 30.6197 33.2812 31.6137C33.2102 32.59 33.9548 33.4221 34.9488 33.4754C34.9843 33.4931 35.0207 33.4927 35.0562 33.4927C35.9792 33.4927 36.7602 32.7659 36.8312 31.8252C36.8845 30.8489 36.14 29.996 35.1637 29.9427ZM106.874 31.9673C105.898 31.9673 105.117 32.7656 105.117 33.7597C105.117 34.7359 105.915 35.5173 106.892 35.5173C107.868 35.5173 108.667 34.7186 108.667 33.7423C108.667 32.7661 107.868 31.9673 106.874 31.9673ZM70.8995 35.4029C73.722 38.4143 76.5509 41.8215 79.3342 45.526C76.6034 45.3759 73.8354 45.2729 71 45.2729C68.0904 45.2729 65.2531 45.3824 62.4543 45.5398C65.2403 41.8209 68.0722 38.4273 70.8995 35.4029ZM71 48.8229C74.7874 48.8229 78.4832 48.9736 82.066 49.2458C84.5338 52.7663 86.9397 56.5282 89.2319 60.4991C91.2562 64.0063 93.098 67.5103 94.751 70.9653C93.0854 74.4515 91.2409 77.983 89.1972 81.5217C89.1889 81.5366 89.1808 81.5516 89.173 81.5668C89.1635 81.5828 89.1542 81.599 89.1452 81.6153C87.3572 84.7084 85.4951 87.6553 83.5949 90.4799C79.5389 90.8338 75.3299 91.0277 71 91.0277C66.6104 91.0277 62.3362 90.8335 58.2283 90.4695C56.3224 87.6346 54.4492 84.6922 52.6572 81.5876C50.601 78.0249 48.7721 74.4744 47.0999 70.9653C48.7651 67.4826 50.6009 63.9555 52.6433 60.4193C52.6468 60.4136 52.6503 60.4078 52.6537 60.402C52.6596 60.3928 52.6653 60.3835 52.671 60.3743C54.9319 56.4601 57.3054 52.7576 59.7364 49.2805C63.3856 48.9969 67.1378 48.8229 71 48.8229ZM86.6318 49.6826C92.1319 50.2865 97.2904 51.1914 101.972 52.3555C100.619 56.9459 98.8378 61.8004 96.637 66.8121C95.2881 64.1292 93.8686 61.4331 92.3069 58.7275C90.4816 55.5653 88.5718 52.5753 86.6318 49.6826ZM55.1533 49.7208C53.2524 52.5609 51.3859 55.5004 49.596 58.5993C49.5878 58.6131 49.5793 58.6274 49.5717 58.6409C49.5698 58.6442 49.5702 58.6479 49.5683 58.6513C47.9955 61.3747 46.5538 64.0905 45.1966 66.7913C43.0184 61.8142 41.214 56.9662 39.8716 52.4076C44.533 51.2402 49.6731 50.3332 55.1533 49.7208ZM118.46 54.661C117.767 54.5969 117.07 54.9412 116.724 55.5935C116.262 56.4633 116.599 57.5276 117.469 57.9891C117.735 58.1311 118.02 58.2006 118.304 58.2006C118.926 58.2006 119.545 57.8646 119.865 57.2611C120.326 56.4091 119.988 55.327 119.136 54.8655C118.919 54.7501 118.691 54.6823 118.46 54.661ZM20.045 57.1051C19.5968 57.0274 19.1151 57.1192 18.7068 57.4032C17.9081 57.9712 17.7159 59.0728 18.2839 59.8716C18.6389 60.3686 19.1862 60.6343 19.7365 60.6343C20.0915 60.6343 20.447 60.5287 20.7488 60.298L20.7661 60.3153C21.5649 59.7473 21.7605 58.6284 21.1925 57.8296C20.9085 57.4302 20.4932 57.1827 20.045 57.1051ZM124.059 58.5784C123.607 58.6139 123.169 58.8228 122.849 59.1955C122.21 59.941 122.315 61.0596 123.061 61.6986C123.398 61.9826 123.808 62.125 124.198 62.125C124.713 62.125 125.209 61.9131 125.564 61.4871C126.185 60.7416 126.094 59.6227 125.349 59.0014C124.976 58.6819 124.512 58.5429 124.059 58.5784ZM71 60.3569C65.1176 60.3569 60.35 65.1246 60.35 71.0069C60.35 76.8893 65.1176 81.6569 71 81.6569C76.8823 81.6569 81.65 76.8893 81.65 71.0069C81.65 65.1246 76.8823 60.3569 71 60.3569ZM14.3248 61.962C13.8744 62.033 13.4544 62.2768 13.1704 62.6762C12.6024 63.475 12.7807 64.5939 13.5794 65.1619C13.8812 65.3749 14.2541 65.4982 14.6091 65.4982C15.1593 65.4982 15.7071 65.2321 16.0443 64.7528C16.6301 63.9541 16.4371 62.8525 15.6561 62.2845C15.2567 61.9916 14.7752 61.891 14.3248 61.962ZM128.573 64.0491C128.343 64.0585 128.112 64.1124 127.89 64.2189C127.003 64.6272 126.612 65.675 127.02 66.5625C127.322 67.2192 127.961 67.5921 128.635 67.5921C128.884 67.5921 129.132 67.5392 129.381 67.4327C130.268 67.0244 130.659 65.9593 130.251 65.0718C129.932 64.4061 129.262 64.0208 128.573 64.0491ZM12.3557 68.549C11.3829 68.602 10.6201 69.4146 10.6673 70.4037C10.7064 71.3588 11.4862 72.099 12.4423 72.099H12.5151C13.4914 72.0635 14.2532 71.2309 14.2 70.2546C14.1645 69.2606 13.3319 68.5135 12.3557 68.549ZM128.968 70.9584C128.281 71.0241 127.659 71.4968 127.446 72.1891V72.2064C127.162 73.1294 127.677 74.1234 128.618 74.4252C128.778 74.4784 128.971 74.498 129.131 74.498C129.895 74.498 130.588 74.0167 130.837 73.2534C131.121 72.3304 130.606 71.3364 129.665 71.0347C129.434 70.9592 129.197 70.9365 128.968 70.9584ZM15.292 75.0076C14.8394 74.9588 14.3701 75.0837 13.9885 75.3855C13.2253 76.0067 13.1003 77.1253 13.7216 77.8885C14.0588 78.3145 14.5723 78.5437 15.1048 78.5437C15.4953 78.5437 15.8878 78.4182 16.2073 78.152C16.9705 77.5485 17.0916 76.433 16.4881 75.6698C16.1775 75.2793 15.7447 75.0564 15.292 75.0076ZM45.1828 75.1255C46.5532 77.8571 47.9913 80.6027 49.5821 83.3591C49.5821 83.3603 49.5821 83.3614 49.5821 83.3626C50.8944 85.6361 52.2494 87.8233 53.6244 89.9599C48.9392 89.3808 44.5142 88.5877 40.4471 87.5955C41.7124 83.5987 43.2975 79.4154 45.1828 75.1255ZM96.6439 75.1255C98.5357 79.428 100.11 83.616 101.38 87.6233C97.2867 88.6149 92.8671 89.4247 88.1537 89.998C89.5336 87.8575 90.8963 85.672 92.2133 83.3938C92.2574 83.3232 92.2872 83.2702 92.3208 83.2031C93.88 80.4993 95.297 77.8064 96.6439 75.1255ZM125.283 76.7965C124.83 76.7854 124.373 76.9446 124.018 77.2818C123.308 77.9563 123.292 79.0956 123.948 79.8056C124.303 80.1606 124.766 80.3361 125.245 80.3361C125.689 80.3361 126.132 80.1771 126.469 79.8576C127.179 79.1831 127.195 78.0473 126.521 77.3373C126.184 76.9912 125.736 76.8076 125.283 76.7965ZM20.0554 79.7086C19.6094 79.7951 19.1969 80.0526 18.9218 80.4609C18.3715 81.2774 18.601 82.379 19.4175 82.9292C19.7193 83.1245 20.0579 83.2308 20.3952 83.2308C20.9809 83.2308 21.5313 82.9448 21.8685 82.43C22.4188 81.6135 22.2066 80.515 21.3901 79.9825C20.9819 79.7073 20.5014 79.622 20.0554 79.7086ZM119.296 80.9809C119.065 81.0092 118.836 81.082 118.623 81.2062C117.789 81.6855 117.489 82.7849 117.986 83.6191C118.305 84.2049 118.907 84.5066 119.511 84.5066C119.813 84.5066 120.132 84.4376 120.398 84.2778C121.25 83.7808 121.551 82.6957 121.054 81.8615C120.694 81.2225 119.987 80.896 119.296 80.9809ZM60.8215 94.2033C64.1387 94.4272 67.5205 94.5777 71 94.5777C74.4092 94.5777 77.7269 94.4361 80.9809 94.2206C77.6759 98.8145 74.2831 102.959 70.8995 106.573C67.5181 102.956 64.1236 98.7975 60.8215 94.2033ZM35.448 101.085C34.4717 100.978 33.5819 101.689 33.4754 102.666C33.3866 103.642 34.08 104.511 35.0562 104.618C35.1272 104.618 35.1794 104.635 35.2504 104.635C36.1379 104.635 36.9193 103.963 37.0081 103.04C37.1146 102.064 36.4242 101.191 35.448 101.085ZM106.711 103.713C105.735 103.766 104.991 104.602 105.044 105.578C105.097 106.519 105.878 107.245 106.819 107.245H106.926C107.903 107.192 108.647 106.357 108.594 105.363C108.541 104.387 107.688 103.642 106.711 103.713ZM34.9141 108.168C33.9201 108.221 33.176 109.056 33.2292 110.033C33.2647 110.973 34.0635 111.718 35.0042 111.718H35.0909C36.0672 111.664 36.8152 110.832 36.7619 109.856C36.7264 108.88 35.8904 108.114 34.9141 108.168ZM106.874 110.795C105.898 110.671 104.991 111.362 104.867 112.321C104.743 113.297 105.416 114.186 106.393 114.328C106.464 114.328 106.554 114.345 106.625 114.345C107.495 114.345 108.276 113.69 108.382 112.803C108.524 111.826 107.833 110.937 106.874 110.795ZM36.3563 115.129C36.1267 115.117 35.8902 115.149 35.6595 115.233C34.7365 115.552 34.2583 116.581 34.5778 117.504C34.8441 118.231 35.5176 118.675 36.2454 118.675C36.4406 118.675 36.6533 118.642 36.8486 118.571C37.7716 118.252 38.2501 117.22 37.9129 116.314C37.6733 115.609 37.0452 115.165 36.3563 115.129ZM60.3188 116.866C59.8706 116.786 59.3923 116.875 58.9841 117.15C58.1853 117.718 57.9901 118.82 58.5403 119.618C58.8953 120.115 59.4461 120.381 59.9964 120.381C60.3514 120.381 60.7065 120.292 61.026 120.079C61.8248 119.511 62.02 118.41 61.4698 117.594C61.1858 117.194 60.767 116.946 60.3188 116.866ZM104.749 117.542C104.062 117.452 103.357 117.773 102.985 118.412C102.505 119.264 102.791 120.345 103.643 120.842C103.927 121.002 104.229 121.074 104.531 121.074C105.152 121.074 105.736 120.755 106.074 120.187C106.553 119.335 106.27 118.25 105.418 117.771C105.205 117.646 104.978 117.572 104.749 117.542ZM85.8622 119.296C85.1757 119.224 84.4778 119.565 84.1184 120.204C83.6569 121.056 83.9563 122.138 84.8083 122.617C85.0923 122.759 85.3767 122.829 85.6784 122.829C86.2997 122.829 86.9051 122.51 87.2246 121.924C87.7039 121.072 87.401 119.99 86.5312 119.511C86.3183 119.391 86.091 119.32 85.8622 119.296ZM53.8116 120.398C53.5806 120.405 53.3471 120.456 53.1252 120.558C52.2377 120.966 51.8468 122.031 52.255 122.919C52.5568 123.575 53.1961 123.948 53.8706 123.948C54.1191 123.948 54.3674 123.895 54.6159 123.789C55.5034 123.381 55.8943 122.316 55.4861 121.428C55.1799 120.762 54.5047 120.378 53.8116 120.398ZM39.9964 120.832C39.5482 120.916 39.131 121.171 38.8559 121.57C38.3056 122.369 38.5004 123.488 39.3169 124.039C39.6187 124.252 39.9747 124.357 40.3119 124.357C40.8799 124.357 41.4268 124.089 41.7818 123.574C42.3321 122.775 42.1195 121.677 41.3207 121.109C40.9214 120.834 40.4446 120.747 39.9964 120.832ZM99.3757 121.997C99.1455 121.979 98.9072 122.003 98.672 122.083C97.749 122.385 97.2331 123.379 97.5349 124.319C97.7834 125.065 98.4777 125.547 99.2232 125.547C99.4007 125.547 99.5969 125.51 99.7744 125.456C100.715 125.155 101.21 124.143 100.908 123.22C100.682 122.515 100.066 122.051 99.3757 121.997ZM91.9464 122.004C91.2616 122.115 90.6807 122.622 90.5077 123.328C90.2592 124.286 90.8462 125.243 91.7869 125.491V125.474C91.9289 125.527 92.0887 125.547 92.2307 125.547C93.0117 125.547 93.7372 124.997 93.9502 124.198C94.1809 123.239 93.6121 122.28 92.6536 122.031C92.414 121.974 92.1746 121.966 91.9464 122.004ZM46.93 122.385C45.9538 122.474 45.2257 123.326 45.3145 124.302C45.4032 125.225 46.1842 125.918 47.0895 125.918H47.249C48.2252 125.829 48.9537 124.959 48.8472 123.983C48.7762 123.007 47.9063 122.296 46.93 122.385Z" fill="#22004B"/>
</svg>
