<svg width="111" height="111" viewBox="0 0 111 111" fill="none" xmlns="http://www.w3.org/2000/svg">
<path d="M107.973 51.9681C107.973 48.4363 105.114 45.409 101.414 45.409H82.0727V7.23176C82.0727 4.20449 79.55 1.68176 76.5227 1.68176H8.74546C5.55001 1.68176 3.02728 4.20449 3.02728 7.23176V58.0227C3.02728 61.0499 5.55001 63.5727 8.57728 63.5727H31.6182V74.3363H22.2C21.1909 74.3363 20.5182 75.009 20.5182 76.0181C20.5182 77.0272 21.1909 77.6999 22.2 77.6999H43.8955V85.7727C43.8955 89.3045 46.7546 92.3318 50.4546 92.3318H67.9455V103.432C67.9455 106.627 70.6364 109.318 73.8318 109.318H89.8091C93.0046 109.318 95.6955 106.627 95.6955 103.432V92.3318H101.414C104.945 92.3318 107.973 89.4727 107.973 85.7727V51.9681ZM6.39092 58.0227V7.23176C6.39092 6.05449 7.40001 5.0454 8.74546 5.0454H76.6909C77.8682 5.0454 78.8773 6.05449 78.8773 7.23176V45.5772H74V10.9318C74 9.92267 73.3273 9.24994 72.3182 9.24994H12.95C11.9409 9.24994 11.2682 9.92267 11.2682 10.9318V54.3227C11.2682 55.3318 11.9409 56.0045 12.95 56.0045H43.8955V60.209C33.8046 60.209 14.6318 60.209 8.74546 60.209C7.40001 60.209 6.39092 59.1999 6.39092 58.0227ZM70.6364 45.5772H50.4546C46.9227 45.5772 43.8955 48.4363 43.8955 52.1363V52.6409H14.6318V12.6136H70.6364V45.5772ZM35.15 74.3363V63.5727H43.8955V74.3363H35.15ZM92.3318 74.8409H71.3091V74.3363C71.3091 72.9909 72.4864 71.8136 73.8318 71.8136H89.8091C91.1546 71.8136 92.3318 72.9909 92.3318 74.3363V74.8409ZM71.3091 78.2045H92.3318C92.3318 78.8772 92.3318 99.059 92.3318 98.8908H71.3091C71.3091 98.5545 71.3091 77.1954 71.3091 78.2045ZM95.6955 74.3363C95.6955 71.1409 93.0046 68.4499 89.8091 68.4499H73.8318C70.6364 68.4499 67.9455 71.1409 67.9455 74.3363V82.0727H53.65V55.8363H98.05V82.0727H95.5273V74.3363H95.6955ZM89.8091 105.954H73.8318C72.4864 105.954 71.3091 104.777 71.3091 103.432V102.254H92.3318V103.432C92.3318 104.777 91.1546 105.954 89.8091 105.954ZM104.609 85.7727C104.609 87.4545 103.264 88.9681 101.414 88.9681H95.6955V85.4363H99.9C100.909 85.4363 101.582 84.7636 101.582 83.7545V54.1545C101.582 53.1454 100.909 52.4727 99.9 52.4727H51.9682C50.9591 52.4727 50.2864 53.1454 50.2864 54.1545V83.7545C50.2864 84.7636 50.9591 85.4363 51.9682 85.4363H67.9455V88.9681H50.4546C48.7727 88.9681 47.2591 87.6227 47.2591 85.7727C47.2591 84.5954 47.2591 49.7818 47.2591 51.9681C47.2591 50.2863 48.6046 48.7727 50.4546 48.7727C111.168 48.7727 40.5318 48.7727 101.414 48.7727C103.095 48.7727 104.609 50.1181 104.609 51.9681V85.7727Z" fill="#22004B"/>
</svg>
