<svg width="124" height="110" viewBox="0 0 124 110" fill="none" xmlns="http://www.w3.org/2000/svg">
<g clip-path="url(#clip0_86_20)">
<mask id="mask0_86_20" style="mask-type:luminance" maskUnits="userSpaceOnUse" x="0" y="0" width="124" height="110">
<path d="M0 0H124V110H0V0Z" fill="white"/>
</mask>
<g mask="url(#mask0_86_20)">
<mask id="mask1_86_20" style="mask-type:luminance" maskUnits="userSpaceOnUse" x="0" y="0" width="124" height="110">
<path fill-rule="evenodd" clip-rule="evenodd" d="M46.5053 67.8811C45.4665 67.8811 44.6266 67.0485 44.6266 66.0203V49.6226C44.6266 47.2206 48.3836 47.2202 48.3836 49.6226V66.0203C48.3831 67.0485 47.5427 67.8811 46.5053 67.8811ZM33.9084 67.9195C29.8225 67.9195 26.6829 65.2459 26.8569 61.0272V49.5937C26.8569 47.1916 30.6148 47.1916 30.6148 49.5937C30.6148 51.9721 30.7636 59.4803 30.6073 61.2858C30.2694 65.1816 37.5588 65.1756 37.2109 61.2858C37.0542 59.536 37.2019 51.9304 37.2019 49.5937C37.2019 47.1916 40.9598 47.1908 40.9598 49.5937V61.0272C41.1344 65.2471 37.9949 67.9195 33.9084 67.9195ZM70.8103 69.1446C66.7235 69.1446 63.5844 66.4693 63.7588 62.2516V50.8189C63.7588 48.4171 67.5166 48.4171 67.5166 50.8189C67.5166 53.0754 67.6656 60.8668 67.5076 62.5103C67.1343 66.4068 74.4961 66.4009 74.1119 62.5103C73.9549 60.9233 74.1028 53.033 74.1028 50.8189C74.1028 48.4171 77.8606 48.4171 77.8606 50.8189V62.2516C78.0351 66.4693 74.896 69.1446 70.8103 69.1446ZM52.3705 73.0999C51.158 73.0999 50.2371 71.9311 50.5553 70.7557L57.4811 45.1475C58.1084 42.8282 61.7391 43.7906 61.1106 46.1124L54.1843 71.7204C53.9592 72.5512 53.2006 73.0999 52.3705 73.0999ZM49.0796 91.1453V96.7455C49.0796 97.7747 49.9201 98.6075 50.9583 98.6075H73.0425C74.0646 98.6075 74.9208 97.7592 74.9208 96.7455L74.9201 91.1453L120.141 91.1442C119.201 99.6417 111.913 106.277 103.089 106.277H20.9113C12.0879 106.277 4.79853 99.6424 3.86034 91.1453H49.0796ZM8.71399 87.4212H1.87887C0.840722 87.4212 0 88.254 0 89.2832C0 100.706 9.38117 110 20.9113 110H103.089C114.62 110 124 100.706 124 89.2832C124 88.255 123.159 87.4224 122.121 87.4224H115.286V21.9175C115.286 9.83191 107.733 0 98.4492 0H25.5526C16.267 0 8.71399 9.83191 8.71399 21.9185V87.4212ZM111.528 87.4224V21.9175C111.528 11.8847 105.661 3.7214 98.4492 3.7214H25.5526C18.3401 3.7214 12.4713 11.8847 12.4713 21.9182V87.4212L51.007 87.4224L51.1032 87.4272L51.1504 87.4321L51.1977 87.4369L51.2446 87.4436L51.2911 87.4507L51.3372 87.4591L51.3831 87.4693L51.4281 87.4808L51.4734 87.4927L51.5169 87.5053L51.5609 87.5198L51.6047 87.5347L51.648 87.5511L51.6896 87.5678L51.7319 87.5863L51.7728 87.6049L51.8142 87.6254L51.8543 87.6469L51.8938 87.6685L51.9714 87.7153L52.009 87.7395L52.0465 87.7651L52.0828 87.7915L52.1189 87.8187L52.1538 87.847L52.1882 87.8752L52.2216 87.9057L52.2546 87.9357L52.2873 87.9669C52.2873 88.0024 52.8374 88.7521 52.8374 89.2832V94.8845H71.1641L71.1629 89.2832C71.1502 87.9399 71.864 87.8733 72.6631 87.4591L72.9449 87.4243L73.0414 87.4212L73.065 87.4224H111.528ZM97.9681 35.8225H26.0335C23.6087 35.8225 23.6087 32.0996 26.0335 32.0996H97.9681C100.394 32.0996 100.392 35.8225 97.9681 35.8225ZM97.9681 25.4113H26.0335C23.6087 25.4113 23.6087 21.6892 26.0335 21.6892H97.9681C100.394 21.6892 100.392 25.4113 97.9681 25.4113ZM95.1282 69.1064C94.5406 69.1064 93.9631 68.8362 93.5965 68.3265L89.2426 62.278L84.6626 68.3589C83.2168 70.2743 80.1794 68.0852 81.65 66.1314L86.9502 59.0937L81.791 51.9283C80.3848 49.9732 83.4416 47.8094 84.8509 49.7662L89.3104 55.9597L93.7827 50.0215C95.2324 48.0978 98.2462 50.3201 96.7963 52.2479L91.6029 59.1447L96.6565 66.1638C97.5366 67.3882 96.5945 69.1064 95.1282 69.1064Z" fill="white"/>
</mask>
<g mask="url(#mask1_86_20)">
<path d="M0 0V110H124V0H0Z" fill="#22004B"/>
</g>
</g>
</g>
<defs>
<clipPath id="clip0_86_20">
<rect width="124" height="110" fill="white"/>
</clipPath>
</defs>
</svg>
